<svg width="30" height="25" viewBox="0 0 30 25" fill="none" xmlns="http://www.w3.org/2000/svg">
<path d="M30 2.96777C28.8769 3.47702 27.6859 3.81156 26.4663 3.96032C27.7513 3.17162 28.7126 1.93108 29.1714 0.469802C27.9646 1.20592 26.6415 1.7218 25.2639 2.00087C24.3376 0.985053 23.1098 0.311361 21.7714 0.0845249C20.433 -0.142311 19.059 0.0904173 17.8629 0.74653C16.6669 1.40264 15.7158 2.44538 15.1576 3.71263C14.5995 4.97988 14.4654 6.40064 14.7763 7.75404C12.3287 7.62853 9.93421 6.97679 7.74834 5.84114C5.56247 4.70549 3.63408 3.11133 2.0884 1.16217C1.54134 2.12524 1.25386 3.22002 1.2554 4.33442C1.2554 6.52165 2.34301 8.45396 3.99284 9.58528C3.01562 9.55369 2.05992 9.28321 1.20536 8.79637V8.8733C1.20531 10.3303 1.69697 11.7424 2.59694 12.8702C3.4969 13.9979 4.74977 14.772 6.14305 15.0609C5.23593 15.3131 4.28467 15.3503 3.36146 15.1695C3.7543 16.4236 4.52004 17.5204 5.55141 18.3062C6.58278 19.0919 7.82813 19.5274 9.11303 19.5515C7.83608 20.5794 6.37395 21.3393 4.81026 21.7876C3.24656 22.2359 1.61198 22.3638 0 22.1641C2.81356 24.0186 6.08875 25.0031 9.43387 25C20.7575 25 26.9476 15.3867 26.9476 7.0496C26.9476 6.77808 26.9417 6.50355 26.9299 6.23354C28.1344 5.34108 29.174 4.2342 30 2.96777Z" fill="white"/>
</svg>
