<svg width="29" height="21" viewBox="0 0 29 21" fill="none" xmlns="http://www.w3.org/2000/svg">
<path d="M11.6 15L19.1255 10.5L11.6 6V15ZM28.362 3.255C28.5505 3.96 28.681 4.905 28.768 6.105C28.8695 7.305 28.913 8.34 28.913 9.24L29 10.5C29 13.785 28.768 16.2 28.362 17.745C27.9995 19.095 27.1585 19.965 25.8535 20.34C25.172 20.535 23.925 20.67 22.011 20.76C20.126 20.865 18.4005 20.91 16.8055 20.91L14.5 21C8.4245 21 4.64 20.76 3.1465 20.34C1.8415 19.965 1.0005 19.095 0.638 17.745C0.4495 17.04 0.319 16.095 0.232 14.895C0.1305 13.695 0.0869999 12.66 0.0869999 11.76L0 10.5C0 7.215 0.232 4.8 0.638 3.255C1.0005 1.905 1.8415 1.035 3.1465 0.66C3.828 0.465 5.075 0.33 6.989 0.24C8.874 0.135 10.5995 0.0899999 12.1945 0.0899999L14.5 0C20.5755 0 24.36 0.24 25.8535 0.66C27.1585 1.035 27.9995 1.905 28.362 3.255Z" fill="white"/>
</svg>
